<mxfile host="Electron" agent="Mozilla/5.0 (Macintosh; Intel Mac OS X 10_15_7) AppleWebKit/537.36 (KHTML, like Gecko) draw.io/28.1.2 Chrome/138.0.7204.243 Electron/37.4.0 Safari/537.36" version="28.1.2">
  <diagram name="Page-1" id="zerxQZ086ekfLkNCUoHV">
    <mxGraphModel dx="1002" dy="732" grid="1" gridSize="10" guides="1" tooltips="1" connect="1" arrows="1" fold="1" page="1" pageScale="1" pageWidth="850" pageHeight="1100" math="1" shadow="0">
      <root>
        <mxCell id="0" />
        <mxCell id="1" parent="0" />
        <mxCell id="16rFzvWHVnO1RS0zJS23-5" value="" style="group" parent="1" vertex="1" connectable="0">
          <mxGeometry x="250" y="230" width="245" height="150" as="geometry" />
        </mxCell>
        <mxCell id="16rFzvWHVnO1RS0zJS23-1" value="" style="endArrow=classic;html=1;rounded=0;strokeWidth=2.5;movable=0;resizable=0;rotatable=0;deletable=0;editable=0;locked=1;connectable=0;" parent="16rFzvWHVnO1RS0zJS23-5" edge="1">
          <mxGeometry width="50" height="50" relative="1" as="geometry">
            <mxPoint x="70" y="90" as="sourcePoint" />
            <mxPoint x="150" y="90" as="targetPoint" />
          </mxGeometry>
        </mxCell>
        <mxCell id="16rFzvWHVnO1RS0zJS23-2" value="" style="endArrow=classic;html=1;rounded=0;strokeWidth=3;movable=0;resizable=0;rotatable=0;deletable=0;editable=0;locked=1;connectable=0;" parent="16rFzvWHVnO1RS0zJS23-5" edge="1">
          <mxGeometry width="50" height="50" relative="1" as="geometry">
            <mxPoint x="70" y="90" as="sourcePoint" />
            <mxPoint x="70" y="10" as="targetPoint" />
          </mxGeometry>
        </mxCell>
        <mxCell id="16rFzvWHVnO1RS0zJS23-3" value="" style="endArrow=classic;html=1;rounded=0;strokeWidth=3;movable=0;resizable=0;rotatable=0;deletable=0;editable=0;locked=1;connectable=0;" parent="16rFzvWHVnO1RS0zJS23-5" edge="1">
          <mxGeometry width="50" height="50" relative="1" as="geometry">
            <mxPoint x="70" y="90" as="sourcePoint" />
            <mxPoint x="20" y="130" as="targetPoint" />
          </mxGeometry>
        </mxCell>
        <mxCell id="16rFzvWHVnO1RS0zJS23-4" value="" style="rounded=1;whiteSpace=wrap;html=1;fillColor=none;strokeWidth=5;movable=0;resizable=0;rotatable=0;deletable=0;editable=0;locked=1;connectable=0;" parent="16rFzvWHVnO1RS0zJS23-5" vertex="1">
          <mxGeometry width="160" height="140" as="geometry" />
        </mxCell>
        <mxCell id="16rFzvWHVnO1RS0zJS23-7" value="&lt;font style=&quot;font-size: 30px;&quot;&gt;$$\mathcal{F}_C$$&lt;/font&gt;" style="text;html=1;align=center;verticalAlign=middle;resizable=0;points=[];autosize=1;strokeColor=none;fillColor=none;" parent="16rFzvWHVnO1RS0zJS23-5" vertex="1">
          <mxGeometry x="-35" y="25" width="280" height="50" as="geometry" />
        </mxCell>
        <mxCell id="16rFzvWHVnO1RS0zJS23-14" value="" style="endArrow=none;html=1;rounded=0;strokeWidth=2;editable=1;movable=1;resizable=1;rotatable=1;deletable=1;locked=0;connectable=1;" parent="1" edge="1">
          <mxGeometry width="50" height="50" relative="1" as="geometry">
            <mxPoint x="330" y="510" as="sourcePoint" />
            <mxPoint x="320" y="490" as="targetPoint" />
          </mxGeometry>
        </mxCell>
        <mxCell id="16rFzvWHVnO1RS0zJS23-16" value="" style="endArrow=none;html=1;rounded=0;strokeWidth=2;editable=1;movable=1;resizable=1;rotatable=1;deletable=1;locked=0;connectable=1;" parent="1" edge="1">
          <mxGeometry width="50" height="50" relative="1" as="geometry">
            <mxPoint x="340" y="510" as="sourcePoint" />
            <mxPoint x="330" y="490" as="targetPoint" />
          </mxGeometry>
        </mxCell>
        <mxCell id="16rFzvWHVnO1RS0zJS23-13" value="&lt;font style=&quot;font-size: 30px;&quot;&gt;$$\mathcal{F}_I$$&lt;/font&gt;" style="text;html=1;align=center;verticalAlign=middle;resizable=0;points=[];autosize=1;strokeColor=none;fillColor=none;" parent="1" vertex="1">
          <mxGeometry x="220" y="425" width="270" height="50" as="geometry" />
        </mxCell>
        <mxCell id="16rFzvWHVnO1RS0zJS23-9" value="" style="endArrow=classic;html=1;rounded=0;strokeWidth=2.5;editable=1;movable=1;resizable=1;rotatable=1;deletable=1;locked=0;connectable=1;" parent="1" edge="1">
          <mxGeometry width="50" height="50" relative="1" as="geometry">
            <mxPoint x="320" y="490" as="sourcePoint" />
            <mxPoint x="400" y="490" as="targetPoint" />
          </mxGeometry>
        </mxCell>
        <mxCell id="16rFzvWHVnO1RS0zJS23-10" value="" style="endArrow=classic;html=1;rounded=0;strokeWidth=3;editable=1;movable=1;resizable=1;rotatable=1;deletable=1;locked=0;connectable=1;" parent="1" edge="1">
          <mxGeometry width="50" height="50" relative="1" as="geometry">
            <mxPoint x="320" y="490" as="sourcePoint" />
            <mxPoint x="320" y="410" as="targetPoint" />
          </mxGeometry>
        </mxCell>
        <mxCell id="16rFzvWHVnO1RS0zJS23-11" value="" style="endArrow=classic;html=1;rounded=0;strokeWidth=3;editable=1;movable=1;resizable=1;rotatable=1;deletable=1;locked=0;connectable=1;" parent="1" edge="1">
          <mxGeometry width="50" height="50" relative="1" as="geometry">
            <mxPoint x="320" y="490" as="sourcePoint" />
            <mxPoint x="270" y="530" as="targetPoint" />
          </mxGeometry>
        </mxCell>
        <mxCell id="16rFzvWHVnO1RS0zJS23-17" value="" style="endArrow=none;html=1;rounded=0;strokeWidth=2;editable=1;movable=1;resizable=1;rotatable=1;deletable=1;locked=0;connectable=1;" parent="1" edge="1">
          <mxGeometry width="50" height="50" relative="1" as="geometry">
            <mxPoint x="350" y="510" as="sourcePoint" />
            <mxPoint x="340" y="490" as="targetPoint" />
          </mxGeometry>
        </mxCell>
        <mxCell id="16rFzvWHVnO1RS0zJS23-12" value="" style="rounded=1;whiteSpace=wrap;html=1;fillColor=none;strokeWidth=5;container=0;movable=1;resizable=1;rotatable=1;deletable=1;editable=1;locked=0;connectable=1;" parent="1" vertex="1">
          <mxGeometry x="250" y="400" width="160" height="140" as="geometry" />
        </mxCell>
        <mxCell id="16rFzvWHVnO1RS0zJS23-18" value="" style="endArrow=none;html=1;rounded=0;strokeWidth=2;editable=1;movable=1;resizable=1;rotatable=1;deletable=1;locked=0;connectable=1;" parent="1" edge="1">
          <mxGeometry width="50" height="50" relative="1" as="geometry">
            <mxPoint x="360" y="510" as="sourcePoint" />
            <mxPoint x="350" y="490" as="targetPoint" />
          </mxGeometry>
        </mxCell>
      </root>
    </mxGraphModel>
  </diagram>
</mxfile>
